Coordinates
version=1
nRows=11
nColumns=40
inDegrees=yes

Units are S.I. units (second, meters, Newtons, ...)
Angles are in degrees.

endheader
time	pelvis_tilt	pelvis_list	pelvis_rotation	pelvis_tx	pelvis_ty	pelvis_tz	hip_flexion_r	hip_adduction_r	hip_rotation_r	knee_angle_r	knee_angle_r_beta	ankle_angle_r	subtalar_angle_r	mtp_angle_r	hip_flexion_l	hip_adduction_l	hip_rotation_l	knee_angle_l	knee_angle_l_beta	ankle_angle_l	subtalar_angle_l	mtp_angle_l	lumbar_extension	lumbar_bending	lumbar_rotation	arm_flex_r	arm_add_r	arm_rot_r	elbow_flex_r	pro_sup_r	wrist_flex_r	wrist_dev_r	arm_flex_l	arm_add_l	arm_rot_l	elbow_flex_l	pro_sup_l	wrist_flex_l	wrist_dev_l
     15.00500000	     -3.34135207	     -5.65237696	      2.83298295	      0.93248773	      0.91725241	      0.47732648	     -0.72364520	      4.76498828	    -14.86429275	     13.62590659	     13.62590659	     19.94554172	      5.24578681	     -2.70002066	     30.99038207	     -8.37850204	     -2.45721275	     21.78924152	     21.78924152	      1.66619063	    -11.73680409	      6.78261546	     -9.40848878	      7.17809155	      5.77102713	     38.47983244	    -12.76076803	      4.93596849	     90.26405338	     44.28957374	      0.00000000	      0.00000000	    -11.28891498	     -8.16034600	     -7.60406659	     34.73517943	     46.05776498	      0.00000000	      0.00000000
     15.01750000	     -3.40640296	     -5.56053685	      2.84005824	      0.93369876	      0.91592774	      0.47543065	     -1.06865591	      4.55039207	    -14.53392794	     14.02378481	     14.02378481	     20.42340160	      4.72345608	     -2.42155974	     30.75563783	     -8.02438526	     -1.77291921	     22.73268776	     22.73268776	      1.41310684	    -12.72109600	      6.44732975	     -9.17563768	      6.91941517	      5.62002308	     38.84270036	    -12.70548785	      5.14000057	     91.53057193	     44.26160056	      0.00000000	      0.00000000	    -11.47466754	     -8.16132094	     -7.42853835	     34.64859541	     46.03257989	      0.00000000	      0.00000000
     15.03000000	     -3.35220888	     -5.37929925	      2.86111819	      0.93506239	      0.91509845	      0.47334000	     -1.63690075	      4.22221240	    -14.38235183	     14.26233100	     14.26233100	     20.70689296	      4.49556025	     -2.38892494	     30.40686113	     -7.65648651	     -1.45042625	     23.66319683	     23.66319683	      1.55557777	    -13.20571578	      6.18375346	     -9.01670732	      6.57834703	      5.53519819	     39.15844019	    -12.76274012	      5.11461409	     91.94873631	     44.25455457	      0.00000000	      0.00000000	    -11.50662496	     -8.17701946	     -7.39383163	     34.58864687	     46.02750100	      0.00000000	      0.00000000
     15.04250000	     -3.41066521	     -5.27631236	      2.91175335	      0.93616269	      0.91433637	      0.47114818	     -1.86301615	      3.95645258	    -14.04223046	     14.88293781	     14.88293781	     21.11004384	      3.80178360	     -1.80942062	     30.25084135	     -7.25687432	     -0.75126438	     24.53995850	     24.53995850	      1.63125190	    -14.25608647	      5.90879229	     -8.85819659	      6.34187738	      5.56204933	     39.10185281	    -13.09127418	      5.24428689	     93.62457173	     44.22596702	      0.00000000	      0.00000000	    -11.36465056	     -8.16707163	     -7.23470529	     34.40302004	     46.00897455	      0.00000000	      0.00000000
     15.05500000	     -3.36178924	     -5.13129843	      3.00442237	      0.93729880	      0.91410117	      0.46870482	     -2.30829552	      3.61532098	    -13.97514608	     15.29623832	     15.29623832	     21.22472834	      3.59663806	     -1.74575856	     30.02301161	     -6.89175013	     -0.38348988	     25.43839856	     25.43839856	      2.06587300	    -14.71271856	      5.63444855	     -8.79649245	      6.08070929	      5.42513082	     39.21688235	    -13.18558197	      5.15771689	     94.00334641	     44.22394517	      0.00000000	      0.00000000	    -11.27518095	     -8.15279972	     -7.19719999	     34.30380664	     46.00518608	      0.00000000	      0.00000000
     15.06750000	     -3.43425196	     -4.97899176	      3.10200410	      0.93820596	      0.91403398	      0.46600993	     -2.43065003	      3.19023751	    -13.95376616	     16.04348837	     16.04348837	     21.30116669	      3.26482737	     -1.64995758	     29.91730146	     -6.47404052	     -0.00239309	     26.23135946	     26.23135946	      2.61151328	    -15.28537175	      5.61133688	     -8.66774791	      5.85328987	      5.28888347	     39.10821728	    -13.38698203	      5.04426365	     94.73035884	     44.21719200	      0.00000000	      0.00000000	    -11.02344554	     -8.05722009	     -7.15592328	     34.11604287	     46.00309687	      0.00000000	      0.00000000
     15.08000000	     -3.43543881	     -4.84602885	      3.24019703	      0.93927639	      0.91457619	      0.46319212	     -2.82026716	      2.82642703	    -13.98479986	     16.41634041	     16.41634041	     21.11543460	      3.12894227	     -1.60168518	     29.58046820	     -6.09699021	      0.25779040	     26.72073649	     26.72073649	      3.24058059	    -15.53549946	      5.36284096	     -8.57436180	      5.65118105	      5.09792364	     38.92170069	    -13.52163610	      4.99353660	     94.79712790	     44.21817786	      0.00000000	      0.00000000	    -10.88290655	     -7.96032884	     -7.13755993	     34.10744192	     46.00247375	      0.00000000	      0.00000000
     15.09250000	     -3.50119901	     -4.60442966	      3.34326448	      0.93991292	      0.91508712	      0.46003189	     -2.61818692	      2.09936870	    -14.29938766	     17.81180825	     17.81180825	     21.15669584	      3.23307106	     -1.88213788	     29.49076897	     -5.55034519	      0.57010185	     27.54114369	     27.54114369	      4.52473340	    -15.96262847	      7.20454564	     -8.54881312	      5.36248229	      5.64805854	     37.95429523	    -14.42450589	      4.13568022	     96.43799533	     44.24496729	      0.00000000	      0.00000000	     -9.90785536	     -7.84187368	     -7.24625491	     33.30147030	     46.02930400	      0.00000000	      0.00000000
     15.10500000	     -3.41606156	     -4.58199424	      3.50236736	      0.94083835	      0.91620096	      0.45686573	     -2.84657004	      1.74764522	    -14.38093147	     18.62792848	     18.62792848	     20.82364014	      3.09232209	     -1.96414790	     29.00203028	     -5.28686624	      0.77440488	     27.87434454	     27.87434454	      5.20514298	    -16.09196471	      6.97472926	     -8.61810278	      5.36636081	      5.37193230	     37.55664958	    -14.58036427	      4.07455729	     96.29402906	     44.25309276	      0.00000000	      0.00000000	     -9.72594953	     -7.68458637	     -7.22266785	     33.34681377	     46.02837418	      0.00000000	      0.00000000
     15.11750000	     -3.58691610	     -4.35776238	      3.48610333	      0.94132678	      0.91694247	      0.45364873	     -2.20408230	      0.89562414	    -14.58111696	     20.58852129	     20.58852129	     20.58024400	      3.12257053	     -2.75702701	     28.71854703	     -4.86731639	      0.67116940	     28.11838406	     28.11838406	      5.89839742	    -16.21929932	      7.12097072	     -8.45427659	      5.14043817	      5.42024570	     37.10892553	    -14.94173476	      3.78085931	     96.02097492	     44.28042898	      0.00000000	      0.00000000	     -9.38292364	     -7.59597687	     -7.27890793	     33.49264142	     46.04041921	      0.00000000	      0.00000000
     15.13000000	     -3.72542653	     -4.22645593	      3.49880794	      0.94190596	      0.91793491	      0.45035622	     -1.60760779	      0.11326646	    -14.85343336	     22.48885805	     22.48885805	     19.98255224	      3.30391262	     -3.93085222	     28.30486288	     -4.51217063	      0.68046033	     28.19617953	     28.19617953	      6.62684670	    -16.27076805	      7.47269145	     -8.30038303	      5.01707380	      5.45928238	     36.42236381	    -15.28788207	      3.36763256	     95.64601854	     44.31692390	      0.00000000	      0.00000000	     -9.08186538	     -7.45006031	     -7.36962277	     33.75314629	     46.05624779	      0.00000000	      0.00000000
